<svg width="35" height="35" viewBox="0 0 35 35" fill="none" xmlns="http://www.w3.org/2000/svg">
<path d="M14.5832 7.29167H20.4165C20.4165 6.51812 20.1092 5.77625 19.5622 5.22927C19.0152 4.68229 18.2734 4.375 17.4998 4.375C16.7263 4.375 15.9844 4.68229 15.4374 5.22927C14.8905 5.77625 14.5832 6.51812 14.5832 7.29167ZM12.3957 7.29167C12.3957 6.62138 12.5277 5.95765 12.7842 5.33839C13.0407 4.71912 13.4167 4.15644 13.8906 3.68248C14.3646 3.20851 14.9273 2.83254 15.5466 2.57603C16.1658 2.31952 16.8295 2.1875 17.4998 2.1875C18.1701 2.1875 18.8338 2.31952 19.4531 2.57603C20.0724 2.83254 20.6351 3.20851 21.109 3.68248C21.583 4.15644 21.959 4.71912 22.2155 5.33839C22.472 5.95765 22.604 6.62138 22.604 7.29167H30.9894C31.2795 7.29167 31.5577 7.4069 31.7628 7.61202C31.9679 7.81714 32.0832 8.09534 32.0832 8.38542C32.0832 8.6755 31.9679 8.9537 31.7628 9.15881C31.5577 9.36393 31.2795 9.47917 30.9894 9.47917H29.0644L27.3582 27.141C27.2273 28.4943 26.597 29.7504 25.5902 30.6641C24.5834 31.5779 23.2724 32.0838 21.9128 32.0833H13.0869C11.7276 32.0835 10.4169 31.5774 9.41039 30.6636C8.40392 29.7499 7.77382 28.4941 7.64296 27.141L5.93525 9.47917H4.01025C3.72017 9.47917 3.44197 9.36393 3.23686 9.15881C3.03174 8.9537 2.9165 8.6755 2.9165 8.38542C2.9165 8.09534 3.03174 7.81714 3.23686 7.61202C3.44197 7.4069 3.72017 7.29167 4.01025 7.29167H12.3957ZM15.3123 14.2188C15.3123 13.9287 15.1971 13.6505 14.992 13.4454C14.7869 13.2402 14.5087 13.125 14.2186 13.125C13.9285 13.125 13.6503 13.2402 13.4452 13.4454C13.2401 13.6505 13.1248 13.9287 13.1248 14.2188V25.1562C13.1248 25.4463 13.2401 25.7245 13.4452 25.9296C13.6503 26.1348 13.9285 26.25 14.2186 26.25C14.5087 26.25 14.7869 26.1348 14.992 25.9296C15.1971 25.7245 15.3123 25.4463 15.3123 25.1562V14.2188ZM20.7811 13.125C20.491 13.125 20.2128 13.2402 20.0077 13.4454C19.8026 13.6505 19.6873 13.9287 19.6873 14.2188V25.1562C19.6873 25.4463 19.8026 25.7245 20.0077 25.9296C20.2128 26.1348 20.491 26.25 20.7811 26.25C21.0712 26.25 21.3494 26.1348 21.5545 25.9296C21.7596 25.7245 21.8748 25.4463 21.8748 25.1562V14.2188C21.8748 13.9287 21.7596 13.6505 21.5545 13.4454C21.3494 13.2402 21.0712 13.125 20.7811 13.125Z" fill="#C2C2C2"/>
</svg>
