<svg width="16" height="16" viewBox="0 0 16 16" fill="none" xmlns="http://www.w3.org/2000/svg">
<g filter="url(#filter0_d_93_7)">
<mask id="path-1-inside-1_93_7" fill="white">
<path d="M6 10V8H4V10M12 10V8H10V10M0 14C0 0 16 0 16 14ZM8 8L2 0H4L8 6L12 0H14"/>
</mask>
<path d="M6 10V8H4V10M12 10V8H10V10M0 14C0 0 16 0 16 14ZM8 8L2 0H4L8 6L12 0H14" fill="#7197FF"/>
<path d="M6 8H7V7H6V8ZM4 8V7H3V8H4ZM12 8H13V7H12V8ZM10 8V7H9V8H10ZM2 0V-1H0L1.2 0.6L2 0ZM4 0L4.83205 -0.5547L4.53518 -1H4V0ZM8 6L7.16795 6.5547L8 7.80278L8.83205 6.5547L8 6ZM12 0V-1H11.4648L11.1679 -0.5547L12 0ZM6 10H7V8H6H5V10H6ZM6 8V7H4V8V9H6V8ZM4 8H3V10H4H5V8H4ZM12 10H13V8H12H11V10H12ZM12 8V7H10V8V9H12V8ZM10 8H9V10H10H11V8H10ZM0 14H1C1 7.40211 4.69135 4.5 8 4.5C11.3086 4.5 15 7.40211 15 14H16H17C17 6.59789 12.6914 2.5 8 2.5C3.30865 2.5 -1 6.59789 -1 14H0ZM8 8L8.8 7.4L2.8 -0.6L2 0L1.2 0.6L7.2 8.6L8 8ZM2 0V1H4V0V-1H2V0ZM4 0L3.16795 0.5547L7.16795 6.5547L8 6L8.83205 5.4453L4.83205 -0.5547L4 0ZM8 6L8.83205 6.5547L12.8321 0.5547L12 0L11.1679 -0.5547L7.16795 5.4453L8 6ZM12 0V1H14V0V-1H12V0Z" fill="#4F7EFF" mask="url(#path-1-inside-1_93_7)"/>
</g>
<defs>
<filter id="filter0_d_93_7" x="-2" y="0" width="20" height="18" filterUnits="userSpaceOnUse" color-interpolation-filters="sRGB">
<feFlood flood-opacity="0" result="BackgroundImageFix"/>
<feColorMatrix in="SourceAlpha" type="matrix" values="0 0 0 0 0 0 0 0 0 0 0 0 0 0 0 0 0 0 127 0" result="hardAlpha"/>
<feOffset dy="2"/>
<feGaussianBlur stdDeviation="1"/>
<feComposite in2="hardAlpha" operator="out"/>
<feColorMatrix type="matrix" values="0 0 0 0 0 0 0 0 0 0 0 0 0 0 0 0 0 0 0.25 0"/>
<feBlend mode="normal" in2="BackgroundImageFix" result="effect1_dropShadow_93_7"/>
<feBlend mode="normal" in="SourceGraphic" in2="effect1_dropShadow_93_7" result="shape"/>
</filter>
</defs>
</svg>
