<svg width="64" height="64" viewBox="0 0 64 64" fill="none" xmlns="http://www.w3.org/2000/svg">
<path d="M8 29.3333C8 19.2773 8 14.248 11.1253 11.1253C14.2507 8.00267 19.2773 8 29.3333 8H34.6667C44.7227 8 49.752 8 52.8747 11.1253C55.9973 14.2507 56 19.2773 56 29.3333V34.6667C56 44.7227 56 49.752 52.8747 52.8747C49.7493 55.9973 44.7227 56 34.6667 56H29.3333C19.2773 56 14.248 56 11.1253 52.8747C8.00267 49.7493 8 44.7227 8 34.6667V29.3333Z" fill="#393939"/>
<path d="M32 37.3333C37.8911 37.3333 42.6667 32.5577 42.6667 26.6667C42.6667 20.7756 37.8911 16 32 16C26.109 16 21.3334 20.7756 21.3334 26.6667C21.3334 32.5577 26.109 37.3333 32 37.3333Z" fill="white"/>
<path fill-rule="evenodd" clip-rule="evenodd" d="M50.5227 54.008C50.5451 54.145 50.5203 54.2855 50.4525 54.4066C50.3847 54.5277 50.2778 54.6222 50.1494 54.6747C46.9467 56 42.2294 56 34.6667 56H29.3334C21.7734 56 17.0533 56 13.8507 54.672C13.7227 54.6196 13.6162 54.5255 13.5484 54.405C13.4807 54.2845 13.4556 54.1446 13.4773 54.008C14.6213 46.112 22.4774 40 32 40C41.5227 40 49.3787 46.112 50.5227 54.008Z" fill="white"/>
</svg>
